<svg width="24" height="24" viewBox="0 0 24 24" fill="none" xmlns="http://www.w3.org/2000/svg">
  <path d="M7.75 3H16.25C18.87 3 21 5.13 21 7.75V16.25C21 18.87 18.87 21 16.25 21H7.75C5.13 21 3 18.87 3 16.25V7.75C3 5.13 5.13 3 7.75 3Z" stroke="currentColor" stroke-width="1.8"/>
  <path d="M12 8.21C9.91 8.21 8.21 9.91 8.21 12C8.21 14.09 9.91 15.79 12 15.79C14.09 15.79 15.79 14.09 15.79 12C15.79 9.91 14.09 8.21 12 8.21Z" stroke="currentColor" stroke-width="1.8"/>
  <circle cx="16.8" cy="7.2" r="1.15" fill="currentColor"/>
</svg>
