<svg width="24" height="24" viewBox="0 0 24 24" fill="none" xmlns="http://www.w3.org/2000/svg">
  <path d="M14.76 4V12.67C14.76 14.63 13.17 16.22 11.21 16.22C9.25 16.22 7.66 14.63 7.66 12.67C7.66 10.71 9.25 9.12 11.21 9.12C11.57 9.12 11.92 9.17 12.25 9.28V6.57C11.91 6.52 11.56 6.5 11.21 6.5C7.8 6.5 5.04 9.26 5.04 12.67C5.04 16.08 7.8 18.84 11.21 18.84C14.62 18.84 17.38 16.08 17.38 12.67V8.73C18.43 9.49 19.72 9.94 21.11 9.94V7.32C18.9 7.32 17.11 5.53 17.11 3.32V3H14.98C14.9 3 14.83 3 14.76 3.01V4Z" fill="currentColor"/>
</svg>
